<?xml version="1.0" encoding="UTF-8" standalone="no"?>
<!DOCTYPE svg PUBLIC "-//W3C//DTD SVG 1.1//EN" "http://www.w3.org/Graphics/SVG/1.1/DTD/svg11.dtd">
<svg width="100%" height="100%" viewBox="0 0 512 128" version="1.1" xmlns="http://www.w3.org/2000/svg" xmlns:xlink="http://www.w3.org/1999/xlink" xml:space="preserve" xmlns:serif="http://www.serif.com/" style="fill-rule:evenodd;clip-rule:evenodd;stroke-linejoin:round;stroke-miterlimit:2;">
    <g transform="matrix(1,0,0,1,-270,0)">
        <g id="Plan-de-travail1" serif:id="Plan de travail1" transform="matrix(0.980843,0,0,0.467153,10.0766,231.241)">
            <rect x="265" y="-495" width="522" height="274" style="fill:none;"/>
            <g transform="matrix(0.622212,0,0,1.30641,129.245,-806.512)">
                <g id="PinkLogo">
                    <path d="M281.215,431.229C255.24,424.423 234.979,401.42 229.409,372.41C227.362,361.749 227.592,346.161 229.932,337.014C234.853,317.772 247.299,302.162 265.277,292.683C272.094,289.089 284.995,284.269 287.925,284.222C288.791,284.208 292.186,281.963 295.468,279.233C298.751,276.504 304.601,272.708 308.468,270.799C319.888,265.162 326.587,263.777 342.5,263.761C354.416,263.75 357.61,264.096 363.957,266.089C374.277,269.33 383.247,274.036 391.678,280.632L398.839,286.235L403.752,283.686C411.402,279.717 425,279.068 425,282.671C425,283.709 424.003,283.923 421.034,283.525C416.299,282.89 408.738,284.634 404.27,287.392L401.04,289.386L404.911,294.567C415.465,308.689 419.169,323.838 415.885,339.448C413.018,353.079 403.773,364.804 393.547,367.777C386.16,369.924 381.638,369.085 377.319,364.767C373.676,361.124 373.546,361.164 372.549,366.247C371.159,373.338 365.721,389.857 363.01,395.228C350.621,419.769 327.459,433.356 298.292,433.192C292.033,433.157 285.872,432.449 281.215,431.229ZM311.283,427.465C318.636,424.808 328.558,417.747 333.895,411.373C343.26,400.188 347.045,391.73 361.03,350.747C372.828,316.176 377.029,307.891 389.707,294.197L395.425,288.021L390.963,284.203C370.328,266.553 340.146,261.477 314.612,271.365C309.263,273.436 297,281.182 297,282.49C297,282.906 299.453,283.247 302.451,283.247C326.966,283.247 348.268,300.807 353.405,325.247L354.771,331.747L357.368,326.196C361.15,318.11 362.436,307.284 360.641,298.632C359.856,294.845 359.371,291.579 359.564,291.374C359.756,291.168 360.577,291.255 361.387,291.566C364.723,292.846 365.472,313.945 362.493,322.747C361.563,325.497 359.434,329.992 357.764,332.735C355.533,336.398 354.511,339.636 353.919,344.921C352.868,354.287 351.437,359.438 347.986,366.274C341.627,378.873 331.775,387.624 319.604,391.484C314.716,393.035 311.47,393.337 303.31,393.001C294.331,392.631 292.344,392.199 286.592,389.367C273.842,383.091 266.08,371.913 265.213,358.581C264.658,350.04 265.659,342.248 267.311,342.247C268.156,342.247 268.5,345.359 268.5,352.997C268.5,362.548 268.797,364.381 271.16,369.423C279.095,386.349 295.881,393.82 313.771,388.385C322.143,385.843 331.505,379.808 336.98,373.426C341.773,367.84 347.371,357.481 348.967,351.247C349.601,348.773 350.363,345.911 350.662,344.888C351.062,343.515 349.804,344.074 345.852,347.025C335.054,355.09 326.303,357.828 314.021,356.986C292.636,355.521 277,337.457 277,314.216C277,308.179 280.174,297.88 283.563,292.92C285.001,290.815 285.968,288.882 285.711,288.625C285.454,288.368 282.253,289.356 278.597,290.819C251.596,301.628 233.65,326.996 232.24,356.345C231.593,369.828 233.572,379.474 239.506,391.747C248.532,410.417 264.79,424.166 283.452,428.907C290.615,430.727 304.202,430.023 311.283,427.465ZM391.079,361.557C400.849,352.731 407.57,329.376 405.038,313.056C403.795,305.043 400.656,295.475 398.594,293.413C397.385,292.204 396.738,292.62 393.993,296.377C392.236,298.781 389.692,303.222 388.339,306.247C386.047,311.374 378.82,334.247 379.493,334.247C379.659,334.247 381.754,333.128 384.148,331.76C386.542,330.391 389.287,329.266 390.25,329.26C392.941,329.241 392.324,331.949 389.475,332.664C385.989,333.539 378.976,340.074 377.347,343.965C374.551,350.643 376.763,361.856 381.308,364.053C385.025,365.849 386.843,365.385 391.079,361.557ZM329.388,352.21C336.547,349.998 347.428,342.476 349.965,337.984C351.173,335.846 351.236,334.277 350.323,329.069C345.761,303.042 328.556,287.785 302.311,286.492L292.122,285.991L288.027,292.328C282.297,301.193 279.563,310.664 280.338,318.964C281.769,334.287 291.69,347.103 305.861,351.933C314.136,354.753 320.894,354.833 329.388,352.21ZM610.512,431.695C595.98,428.032 580.736,417.493 572.02,405.082C561.172,389.635 556.695,375.311 556.6,355.747C556.531,341.43 557.754,335.756 563.498,323.747C572.376,305.189 589.622,291.516 611.958,285.326C616.988,283.932 620.358,282.163 624.653,278.66C651.441,256.815 695.196,258.422 722.262,282.247L726.902,286.331L732.029,283.733C737.708,280.855 744.948,279.64 750.363,280.656C755.304,281.583 754.213,283.916 749.068,283.425C744.471,282.987 735.149,285.496 732.05,288.006L729.861,289.778L733.486,294.525C738.787,301.468 743.775,312.767 745.002,320.611C746.27,328.722 745.099,339.263 742.027,347.395C737.428,359.567 725.587,369.217 715.218,369.242C711.491,369.251 706.279,366.603 704.41,363.751L702.665,361.087L699.31,373.417C694.325,391.74 688.479,402.832 678.537,412.829C669.551,421.865 663.259,425.82 651.5,429.825C644.666,432.153 641.533,432.597 630,432.877C620.331,433.111 614.801,432.776 610.512,431.695ZM637.217,428.262C651.795,423.76 664.667,411.718 672.897,394.886C675.623,389.31 682.439,371.472 688.044,355.247C693.648,339.023 699.516,322.905 701.084,319.431C704.917,310.937 711.737,300.956 718.377,294.123L723.842,288.499L720.171,284.972C713.988,279.03 704.143,273.394 694.087,270.037C685.093,267.035 683.633,266.838 670.5,266.87C658.118,266.9 655.575,267.209 648.5,269.54C640.468,272.187 630.207,277.681 626.528,281.305C624.572,283.231 624.61,283.247 631.068,283.247C655.395,283.247 677.39,301.407 682.108,325.388C683.249,331.192 683.369,331.368 684.641,329.113C685.376,327.812 686.941,323.658 688.121,319.883C689.892,314.21 690.165,311.52 689.691,304.383C689.375,299.633 688.813,294.735 688.442,293.497C687.952,291.865 688.178,291.247 689.265,291.247C693.102,291.247 694.339,311.768 691.124,322.096C690.093,325.41 687.843,330.407 686.124,333.2C684.34,336.1 682.993,339.665 682.983,341.513C682.951,347.475 680.042,358.626 676.663,365.742C671.865,375.845 663.696,384.3 654.197,388.995C646.686,392.707 646.472,392.747 634.5,392.747C622.532,392.747 622.311,392.705 614.819,389.003C605.859,384.575 600.992,379.591 596.73,370.483C594.163,364.998 593.669,362.695 593.591,355.86C593.486,346.503 594.407,342.247 596.538,342.247C597.69,342.247 597.864,342.886 597.288,344.997C595.793,350.478 596.617,361.53 598.986,367.747C602.132,376.006 611.239,385.142 619.288,388.112C641.56,396.33 667.527,380.282 677.132,352.363C678.16,349.377 679,346.058 679,344.987C679,343.268 678.595,343.396 675.54,346.078C662.993,357.095 643.787,360.417 629.762,353.996C614.828,347.159 606,332.755 606,315.225C606,306.204 607.609,300.229 611.931,293.206C614.976,288.257 615.004,288.108 612.79,288.723C611.531,289.072 606.225,291.432 601,293.967C592.907,297.894 590.161,299.922 582.46,307.662C567.397,322.8 560.854,338.467 560.708,359.747C560.649,368.268 561.136,372.538 562.866,378.691C572.892,414.343 607.525,437.433 637.217,428.262ZM720.133,361.62C723.797,358.109 728.329,349.32 731.152,340.247C734.479,329.555 734.51,311.668 731.217,302.144C729.961,298.512 728.317,294.696 727.563,293.664C726.242,291.859 726.115,291.881 724.13,294.268C719.104,300.312 711.859,317.686 708.615,331.477L707.972,334.206L712.635,331.727C717.467,329.158 721,328.526 721,330.231C721,330.771 718.809,332.324 716.13,333.681C705.275,339.182 701.4,350.104 706.634,360.448C709.404,365.923 715.123,366.42 720.133,361.62ZM662.508,350.391C666.088,348.715 671.504,344.993 674.543,342.118C680.008,336.95 680.062,336.841 679.456,332.32C677.647,318.834 672.459,307.898 664.078,299.903C654.48,290.748 642.805,286.292 628.339,286.262C621.482,286.248 621.061,286.386 618.429,289.497C616.917,291.285 614.29,295.672 612.59,299.247C609.776,305.167 609.5,306.64 609.5,315.747C609.5,324.604 609.82,326.434 612.3,331.747C616.976,341.77 625.535,349.255 636.5,352.911C643.155,355.129 654.791,354.002 662.508,350.391ZM965.209,415.285C963.399,414.844 961.133,413.773 960.174,412.905C958.579,411.461 958.175,411.493 955.465,413.28C948.646,417.775 939.626,414.016 938.369,406.156C938.026,404.006 937.435,402.247 937.056,402.247C936.678,402.247 935.374,404.018 934.157,406.181C930.719,412.299 926.612,415.247 921.528,415.247C916.399,415.247 913.087,412.428 911.436,406.656L910.372,402.936L907.727,407.45C903.347,414.924 898.224,416.966 891.967,413.731C888.487,411.931 886.405,408.235 884.888,401.16L883.776,395.973L880.395,402.36C875.698,411.234 871.195,415.247 865.938,415.247C861.065,415.247 856.35,411.249 855.355,406.273L854.734,403.169L851.485,407.994C846.095,415.997 839.976,417.423 834.503,411.951C831.146,408.594 829.031,403.147 828.987,397.747C828.966,395.174 828.354,395.884 824.68,402.742C818.525,414.232 812.49,417.621 805.041,413.769C801.084,411.722 798.531,404.863 799.448,398.744C799.826,396.222 802.38,387.645 805.122,379.686C808.935,368.62 810.037,364.1 809.804,360.481C809.637,357.877 809.072,355.747 808.55,355.747C808.027,355.747 806.321,359.095 804.76,363.186C796.926,383.714 787.634,404.107 783.64,409.534C779.652,414.954 773.582,416.634 768.145,413.823C765.441,412.424 763,408.571 763,405.7C763,403.376 761.57,404.012 759.708,407.165C757.236,411.35 752.252,415.247 749.374,415.247C745.073,415.247 740.953,412.358 738.943,407.931C736.487,402.521 736.305,387.974 738.596,380.179C742.591,366.586 752.452,353.597 760.453,351.388C765.316,350.045 768.449,351.296 770.638,355.455L772.372,358.747L773.331,355.497C774.282,352.272 774.338,352.247 780.645,352.247C784.14,352.247 787,352.468 787,352.737C787,353.006 783.591,365.631 779.425,380.793C773.39,402.754 772.093,408.654 773.047,409.804C778.277,416.106 785.721,403.744 800.612,364.027L805.007,352.307L803.007,349.027C798.905,342.299 802.018,333.826 808.366,334.443C811.135,334.712 811.538,335.148 811.827,338.185C812.007,340.076 811.599,343.607 810.92,346.032L809.686,350.441L814.309,354.394C817.055,356.74 819.297,359.664 819.829,361.591C821.161,366.416 819.624,375.093 814.66,390.756C809.164,408.1 809.053,408.591 810.181,410.605C813.581,416.683 822.771,403.35 830.468,381.171C834.824,368.618 839.017,361.336 844.877,356.147C852.54,349.362 859.113,349.096 862.956,355.416C864.979,358.741 864.896,358.781 866.469,353.747C867.103,351.717 879,351.56 879,353.583C879,354.317 876.049,365.455 872.442,378.333C868.835,391.211 865.798,403.773 865.692,406.247C865.523,410.214 865.765,410.785 867.735,411.065C872.203,411.7 878.737,401.343 884.911,383.845C889.652,370.405 894.521,361.886 900.676,356.261C908.954,348.695 916.468,348.375 919.447,355.46L920.797,358.67L922.255,353.709C923.057,350.98 926.8,337.441 930.572,323.622L937.43,298.497L943.715,298.497C947.172,298.497 950,298.656 950,298.85C950,299.043 943.448,323.093 935.44,352.294C927.432,381.495 921.02,406.589 921.19,408.059C921.381,409.705 922.206,410.864 923.339,411.079C929.116,412.176 938.671,393.174 945.884,366.247L949.5,352.747L955.75,352.45C959.188,352.286 962,352.44 962,352.792C962,353.144 958.85,364.919 955,378.959C951.15,392.998 948,405.727 948,407.244C948,411.196 950.362,412.915 953.202,411.03C955.137,409.745 955.41,408.658 955.452,402.081C955.494,395.502 955.832,394.158 958.239,391.002C959.745,389.026 962.479,386.914 964.314,386.309C967.139,385.376 968.091,384.179 970.539,378.478C975.834,366.141 982.863,352.791 986.129,348.868C991.474,342.448 1000.93,339.322 1004.43,342.819C1006.45,344.84 1006.45,349.655 1004.43,351.676C1002.17,353.936 999.595,353.619 996.062,350.646C989.305,344.96 988.17,351.126 993.075,366.874C998.512,384.33 996.263,398.918 986.654,408.527C980.89,414.291 972.276,417.005 965.209,415.285ZM972.38,409.379C979.273,403.395 984.963,386.386 986.521,367.104C987.529,354.622 986.279,353.285 981.718,361.964C979.731,365.746 976.542,372.547 974.631,377.077L971.157,385.314L973.579,387.735C976.557,390.713 976.608,392.204 973.855,395.705C972.18,397.834 971.069,398.338 968.789,398.003C966.142,397.615 965.633,398.039 963.366,402.512C960.614,407.942 960.802,409.837 964.228,411.199C966.92,412.269 969.789,411.629 972.38,409.379ZM754.47,408.868C762.379,400.959 771.637,370.039 769.013,360.294C767.849,355.974 765.725,353.755 763.55,354.59C758.853,356.392 747,391.38 747,403.442C747,411.313 749.911,413.428 754.47,408.868ZM847.571,407.997C853.433,401.066 860.418,381.367 861.624,368.368C862.64,357.417 858.045,350.213 854.051,356.497C849.487,363.68 843.289,380.99 840.453,394.473C838.744,402.595 838.656,405.213 839.975,408.682C841.314,412.204 844.236,411.94 847.571,407.997ZM903.64,407.089C908.628,401.629 915.142,384.097 917.118,370.812C918.724,360.015 916.301,353.044 911.573,354.858C909.653,355.595 906.892,361.708 903.049,373.73C893.455,403.746 893.707,417.96 903.64,407.089ZM962.328,396.249C961.488,395.397 958.998,399.52 959.042,401.689C959.074,403.282 959.506,402.956 960.951,400.247C961.979,398.323 962.598,396.523 962.328,396.249ZM416.078,413.106C413.289,410.508 411,405.297 411,401.547C411,400.027 413.775,388.312 417.167,375.515L423.334,352.247L429.734,352.247C435.366,352.247 436.071,352.458 435.602,353.997C432.917,362.825 422.149,403.393 421.987,405.294C421.411,412.065 423.396,413.468 428.031,409.568C433.658,404.833 441.518,387.256 447.466,366.106L451.303,352.465L457.401,352.991C460.756,353.281 463.625,353.62 463.778,353.744C463.931,353.868 463.598,355.175 463.038,356.648L462.02,359.326L465.941,356.174C472.854,350.62 480.018,350.622 483.301,356.18C486.638,361.829 485.186,370.482 477.038,393.513C472.454,406.472 472.061,411.542 475.602,412.048C480.02,412.678 487.076,401.226 493.454,383.073C494.87,379.044 500.703,358.729 506.416,337.929C512.13,317.128 516.961,299.97 517.152,299.798C517.343,299.627 520.252,299.297 523.615,299.063L529.731,298.639L528.77,302.193C527.343,307.476 512.006,362.465 511.393,364.497C510.964,365.921 511.484,366.243 514.183,366.225C518.009,366.2 520.157,364.627 525.501,357.934C530.07,352.212 533.494,350.247 538.894,350.247C541.886,350.247 543.277,350.804 544.443,352.47C546.832,355.88 546.397,359.79 543.365,362.175C539.916,364.888 537.798,364.79 534.182,361.747C532.548,360.372 530.749,359.247 530.184,359.247C529.618,359.247 527.516,361.16 525.512,363.497C522.262,367.288 522.052,367.855 523.568,368.747C524.503,369.297 526.558,370.8 528.134,372.086C532.273,375.464 532.089,382 527.5,394.678C522.658,408.054 522.936,413.233 528.422,411.856C531.791,411.011 536.304,403.955 541.924,390.747C544.265,385.247 546.265,380.66 546.369,380.552C546.473,380.444 547.134,380.712 547.838,381.147C548.825,381.757 548.277,384.04 545.446,391.112C540.904,402.463 535.076,411.64 531.107,413.692C525.376,416.656 516.486,414.892 514.03,410.303C512.009,406.527 512.955,399.465 517,388.125C521.324,376.003 521.767,373.129 519.589,371.322C517.618,369.686 511.389,368.808 510.617,370.058C510.065,370.952 502.323,397.689 499.052,409.997L497.923,414.247L485.777,414.247L487.059,406.747L484.279,409.897C480.648,414.011 478.039,415.247 472.989,415.247C469.743,415.247 468.213,414.614 465.923,412.324C460.878,407.279 461.946,397.926 469.984,376.79C475.015,363.558 476.048,357.587 473.476,356.6C466.847,354.056 457.303,373.086 448.952,405.497L446.697,414.247L440.281,414.247C434.103,414.247 433.889,414.164 434.512,411.997C434.868,410.76 435.397,408.901 435.688,407.866C435.996,406.774 434.356,407.928 431.78,410.616C427.795,414.776 426.886,415.247 422.86,415.247C419.661,415.247 417.719,414.634 416.078,413.106ZM1008.9,412.989C999.026,406.429 998.302,389.264 1007.14,371.311C1012.73,359.963 1022.65,351.331 1030.17,351.27C1033.76,351.24 1038.59,355.478 1040.06,359.939C1041.68,364.825 1040.64,374.915 1037.93,380.682C1034.15,388.713 1023.23,396.247 1015.37,396.247C1013.56,396.247 1012.96,396.965 1012.43,399.747C1011.42,405.159 1012.72,410.165 1015.48,411.419C1022.95,414.825 1031.86,407.333 1039.96,390.823C1043.5,383.617 1045.53,380.513 1046.47,380.874C1047.61,381.311 1047.58,382.01 1046.3,385.073C1040.37,399.303 1033.69,409.173 1027.57,412.761C1021.85,416.109 1013.74,416.208 1008.9,412.989ZM1020.9,391.672C1025.91,389.666 1029.49,384.529 1032.47,375.077C1036.35,362.742 1036.53,359.972 1033.64,356.629L1031.15,353.747L1028.1,356.66C1026.42,358.262 1023.71,362.787 1022.08,366.716C1019.35,373.262 1014,390.254 1014,392.359C1014,393.685 1016.48,393.438 1020.9,391.672ZM427,343.379C427,342.895 427.642,340.68 428.426,338.458L429.852,334.417L421.645,328.747L426.821,328.445L431.997,328.143L433.118,323.695C433.733,321.249 434.575,319.247 434.989,319.247C435.402,319.247 436.307,321.273 437,323.747L438.26,328.247L443.38,328.281L448.5,328.314L446.09,330.321C444.765,331.424 442.978,332.72 442.121,333.2C440.712,333.988 440.719,334.563 442.19,339.162C443.925,344.589 443.788,344.642 438.357,340.631L435.215,338.309L431.107,341.285C428.848,342.921 427,343.864 427,343.379ZM953,343.928C953,343.692 953.694,341.533 954.541,339.131L956.082,334.763L952.791,332.032C950.981,330.53 949.05,329.216 948.5,329.111C947.95,329.007 949.955,328.657 952.956,328.335L958.412,327.747L961.42,318.025L963.041,322.886L964.661,327.747L970.081,328.335C973.061,328.657 975.05,329.007 974.5,329.111C973.95,329.216 972.019,330.53 970.209,332.032L966.918,334.763L968.459,339.131C969.306,341.533 970,343.689 970,343.921C970,344.153 968.083,343.025 965.74,341.413L961.481,338.482L957.24,341.42C954.908,343.035 953,344.164 953,343.928Z" style="fill:rgb(215,34,119);fill-rule:nonzero;"/>
                </g>
            </g>
        </g>
    </g>
</svg>
